# xmcd
#
# Track frame offsets:
#	150
#	4917
#	12500
#	18290
#	22835
#	30210
#	35362
#	40912
#	47930
#	51575
#	56000
#	63495
#	70010
#	74560
#	79730
#	84637
#	89440
#	97812
#	103565
#	107737
#	113262
#	119020
#	125067
#	132302
#	137890
#	144175
#	153210
#	156937
#	161927
#	168872
#	175180
#	181305
#	189002
#	195910
#	202250
#	208459
#	213507
#	218535
#	225480
#	231165
#	234965
#	247640
#	261727
#	272887
#
# Disc length: 3997 seconds
#
# Revision: 0
# Processed by: cddbd v1.5.2PL0 Copyright (c) Steve Scherf et al.
# Submitted via: EZCDAudioConverter 2.1.3.1
#
DISCID=670f9b2c
DTITLE=Various Artist - National Oldtime Fiddler's Contest 1997
DYEAR=1997
DGENRE=Country
TTITLE0=Jack Link - Introduction
TTITLE1=Luke Bulla - Wagoneer
TTITLE2=Luke Bulla - Old South
TTITLE3=Luke Bulla - Texas Serenade
TTITLE4=Amber Randall - Grey Eagle
TTITLE5=Amber Randall - Nancy's Waltz
TTITLE6=Amber Randall - Fiddlin' Around
TTITLE7=Jimmie Don Bates - Done Gone
TTITLE8=Jimmie Don Bates - Rose of Avonmoor
TTITLE9=Jimmie Don Bates - Crafton's Blues
TTITLE10=Tashina Clarridge - Sally Johnson
TTITLE11=Tashina Clarridge - Misty Moonlight
TTITLE12=Tashina Clarridge - Hotfoot
TTITLE13=Matt Hartz - Soppin' the Gravy
TTITLE14=Matt Hartz - Roxanne
TTITLE15=Matt Hartz - I Don't Love Nobody
TTITLE16=Levi Dennis - Billy in the Lowground
TTITLE17=Levi Dennis - Kelly Waltz
TTITLE18=Levi Dennis - River Road Two-Step
TTITLE19=Rudy Booher - Apple Blossoms
TTITLE20=Rudy Booher - Chancellor's Waltz
TTITLE21=Rudy Booher - Cottan Patch Rag
TTITLE22=Joey McKenzie - Boil the Cabbage Down
TTITLE23=Joey McKenzie - Oopik Waltz
TTITLE24=Joey McKenzie - Footprints in the Snow
TTITLE25=Jimmie Don Bates - Sally Goodin
TTITLE26=Jimmie Don Bates - Old Shep
TTITLE27=Jimmie Don Bates - Topeka Polka
TTITLE28=Luke Bulla - Brilliancy
TTITLE29=Luke Bulla - Golden Fiddle Waltz
TTITLE30=Luke Bulla - Twelth Street Rag
TTITLE31=Joey McKenzie - Tom  and Jerry
TTITLE32=Joey McKenzie - Over the Waves
TTITLE33=Joey McKenzie - Black and White Rag
TTITLE34=Rudy Booher - Dusty Miller
TTITLE35=Rudy Booher - Velvet's Waltz
TTITLE36=Rudy Booher - Allentown Polka
TTITLE37=Levi Dennis - Leather Britches
TTITLE38=Levi Dennis - Martins Waltz
TTITLE39=Levi Dennis - My Pretty Rainbow
TTITLE40=Jack Link - Announces Ties
TTITLE41=Luke Bulla - Sally Goodin
TTITLE42=Jimmie Don Bates - Sally Johnson
TTITLE43=Jack Link - Awards Presentation
EXTD=
EXTT0=
EXTT1=
EXTT2=
EXTT3=
EXTT4=
EXTT5=
EXTT6=
EXTT7=
EXTT8=
EXTT9=
EXTT10=
EXTT11=
EXTT12=
EXTT13=
EXTT14=
EXTT15=
EXTT16=
EXTT17=
EXTT18=
EXTT19=
EXTT20=
EXTT21=
EXTT22=
EXTT23=
EXTT24=
EXTT25=
EXTT26=
EXTT27=
EXTT28=
EXTT29=
EXTT30=
EXTT31=
EXTT32=
EXTT33=
EXTT34=
EXTT35=
EXTT36=
EXTT37=
EXTT38=
EXTT39=
EXTT40=
EXTT41=
EXTT42=
EXTT43=
PLAYORDER=
